<svg width="344" height="25" viewBox="0 0 344 25" fill="none" xmlns="http://www.w3.org/2000/svg">
<path d="M17.023 22.1356L10.3234 6.1326C10.3234 6.1326 10.3053 6.11451 10.2692 6.07835C10.2511 6.0241 10.224 5.96985 10.1878 5.91561C10.1516 5.84328 10.1245 5.78903 10.1064 5.75286C10.0883 5.69862 10.0793 5.67149 10.0793 5.67149C10.224 5.00244 10.2692 4.51421 10.2149 4.20681C10.1788 3.88132 9.99793 3.66433 9.67245 3.55584C9.36504 3.42926 8.85873 3.35693 8.15352 3.33885L8.28913 2.79637C8.57845 2.81446 8.93106 2.83254 9.34696 2.85062C9.78094 2.8687 10.233 2.87774 10.7031 2.87774C11.553 2.87774 12.2854 2.85062 12.9002 2.79637L18.4334 16.6837C18.4334 16.6837 18.4153 16.8194 18.3792 17.0906C18.343 17.3438 18.2888 17.6783 18.2164 18.0942C18.1622 18.492 18.0989 18.926 18.0266 19.3961C17.9542 19.8663 17.8819 20.3093 17.8096 20.7252C17.7553 21.1411 17.7101 21.4846 17.674 21.7559C17.6378 22.009 17.6197 22.1356 17.6197 22.1356H17.023ZM25.3229 2.06403C24.8346 2.08211 24.4007 2.22677 24.0209 2.49801C23.6593 2.75117 23.3428 3.08569 23.0716 3.50159C22.2398 4.7312 21.3899 6.89206 20.522 9.98417C19.654 13.0763 18.6866 17.1268 17.6197 22.1356L17.24 21.3762C17.5112 20.1646 17.8005 18.8627 18.1079 17.4703C18.4153 16.0599 18.7408 14.6495 19.0844 13.239C19.446 11.8286 19.8077 10.4814 20.1693 9.19758C20.5491 7.91372 20.9379 6.76548 21.3357 5.75286C21.7516 4.72216 22.1675 3.89941 22.5834 3.2846C22.9269 2.79637 23.3338 2.38952 23.8039 2.06403C24.2741 1.72046 24.8437 1.54868 25.5127 1.54868C26.2722 1.54868 26.8327 1.74759 27.1944 2.1454C27.5561 2.52514 27.7369 2.98624 27.7369 3.52871C27.7369 4.1616 27.538 4.71312 27.1402 5.18326C26.7423 5.63533 26.2179 5.86136 25.567 5.86136C25.0426 5.86136 24.6448 5.7167 24.3735 5.42738C24.1204 5.13806 23.9938 4.80353 23.9938 4.4238C23.9938 3.89941 24.1475 3.4383 24.4549 3.04049C24.7804 2.64267 25.1782 2.35335 25.6483 2.17253C25.5941 2.13636 25.5399 2.10924 25.4856 2.09116C25.4494 2.07307 25.3952 2.06403 25.3229 2.06403ZM3.32549 23.4918C3.8318 23.4737 4.26578 23.3291 4.62743 23.0578C5.00716 22.8047 5.34169 22.4611 5.63101 22.0271C6.1554 21.1953 6.67979 19.8934 7.20418 18.1213C7.74666 16.3492 8.28913 14.2064 8.83161 11.693C9.39217 9.1795 9.95273 6.42192 10.5133 3.42022L10.9744 3.98982C10.6851 5.47258 10.3777 6.98247 10.0522 8.51949C9.74478 10.0384 9.42833 11.5302 9.10285 12.9949C8.77736 14.4415 8.44284 15.7887 8.09927 17.0364C7.7557 18.284 7.41213 19.369 7.06857 20.2912C6.725 21.1953 6.39047 21.8644 6.06499 22.2984C5.7395 22.7323 5.35073 23.1211 4.89866 23.4647C4.46468 23.8263 3.88604 24.0072 3.16274 24.0072C2.38519 24.0072 1.8156 23.8083 1.45395 23.4104C1.09229 23.0307 0.91147 22.5606 0.91147 22C0.91147 21.3852 1.11038 20.8518 1.50819 20.3997C1.90601 19.9296 2.4304 19.6945 3.08137 19.6945C3.62385 19.6945 4.02166 19.8391 4.27482 20.1285C4.52797 20.4178 4.65455 20.7523 4.65455 21.132C4.65455 21.6564 4.49181 22.1175 4.16632 22.5154C3.85892 22.9132 3.47919 23.2025 3.02712 23.3833C3.06329 23.4195 3.1085 23.4466 3.16274 23.4647C3.21699 23.4828 3.27124 23.4918 3.32549 23.4918ZM28.5701 3.33885C28.6243 2.6698 28.8956 2.13636 29.3838 1.73855C29.872 1.34073 30.4416 1.14182 31.0926 1.14182C31.6893 1.14182 32.1414 1.31361 32.4488 1.65717C32.7743 1.98266 32.9099 2.4076 32.8556 2.93199C32.8014 3.5468 32.5302 4.06215 32.0419 4.47805C31.5537 4.89394 30.9841 5.10189 30.3331 5.10189C29.7364 5.10189 29.2753 4.93915 28.9498 4.61367C28.6424 4.2701 28.5158 3.84516 28.5701 3.33885ZM27.6208 10.3097C27.9462 9.3332 27.8377 8.84497 27.2953 8.84497C26.9336 8.84497 26.6081 9.03484 26.3188 9.41457C26.0295 9.77622 25.7221 10.3639 25.3966 11.1776L24.9355 12.4524H24.4201L25.1254 10.4182C25.3966 9.69485 25.7221 9.13429 26.1018 8.73648C26.4816 8.32058 26.9065 8.03126 27.3766 7.86852C27.8468 7.70577 28.3079 7.6244 28.7599 7.6244C29.3928 7.6244 29.872 7.74194 30.1975 7.97701C30.523 8.21209 30.74 8.51949 30.8485 8.89922C30.957 9.27895 30.9841 9.69485 30.9299 10.1469C30.8756 10.5809 30.7761 11.0058 30.6315 11.4217L27.7564 19.6945C27.5936 20.1827 27.5484 20.5534 27.6208 20.8066C27.6931 21.0416 27.8649 21.1592 28.1361 21.1592C28.4254 21.1592 28.7147 21.0055 29.0041 20.6981C29.3115 20.3726 29.637 19.7487 29.9805 18.8265L30.4416 17.6059H30.957L30.2789 19.586C30.0076 20.3093 29.6822 20.8789 29.3024 21.2948C28.9227 21.6926 28.5068 21.9729 28.0547 22.1356C27.6027 22.2984 27.1596 22.3797 26.7257 22.3797C25.93 22.3797 25.3514 22.2079 24.9897 21.8644C24.6281 21.5027 24.4473 21.0145 24.4473 20.3997C24.4473 19.7668 24.5919 19.0435 24.8813 18.2298L27.6208 10.3097ZM35.8079 22H32.4717L37.8422 3.90845C38.023 3.29364 37.9959 2.84158 37.7608 2.55226C37.5438 2.26294 36.9923 2.11828 36.1063 2.11828L36.2961 1.54868C37.4896 1.5306 38.5474 1.43114 39.4696 1.25032C40.4099 1.05141 41.2959 0.780173 42.1277 0.436606L35.8079 22ZM43.0228 20.0471C42.9505 20.463 42.9505 20.7523 43.0228 20.915C43.0951 21.0778 43.2488 21.1592 43.4839 21.1592C43.7732 21.1592 44.0626 21.0055 44.3519 20.6981C44.6412 20.3726 44.9486 19.7487 45.2741 18.8265L45.6809 17.6059H46.1963L45.5453 19.586C45.2922 20.3274 44.9667 20.897 44.5689 21.2948C44.1891 21.6926 43.7642 21.9729 43.294 22.1356C42.8239 22.2984 42.3538 22.3797 41.8836 22.3797C41.088 22.3797 40.5003 22.1356 40.1206 21.6474C39.7408 21.1592 39.6595 20.4178 39.8765 19.4232L40.3647 17.2533C40.5998 16.2588 40.5274 15.5355 40.1477 15.0834C39.768 14.6314 38.9452 14.3511 37.6794 14.2426V14.1341C38.4389 14.0799 39.1984 14.0799 39.9578 14.1341C40.7173 14.1884 41.3954 14.3511 41.9921 14.6223C42.5888 14.8755 43.0319 15.2552 43.3212 15.7615C43.6105 16.2678 43.6647 16.9369 43.4839 17.7687L43.0228 20.0471ZM44.6774 8.16688C44.4423 8.16688 44.2343 8.20304 44.0535 8.27537C43.8908 8.3477 43.728 8.44716 43.5653 8.57373C43.2398 8.84497 42.9686 9.21566 42.7516 9.68581C42.5346 10.1379 42.3176 10.6261 42.1006 11.1505C41.9017 11.6749 41.6395 12.1722 41.314 12.6423C41.0066 13.1124 40.5907 13.5012 40.0663 13.8086C39.5419 14.0979 38.8548 14.2336 38.0049 14.2155L37.7337 14.2426L37.7879 13.9442C38.6197 13.89 39.2797 13.7092 39.768 13.4018C40.2743 13.0944 40.6721 12.7146 40.9614 12.2626C41.2507 11.7924 41.4858 11.3042 41.6666 10.7979C41.8655 10.2916 42.0735 9.81239 42.2905 9.36032C42.5075 8.90826 42.7968 8.53757 43.1584 8.24825C43.4658 7.99509 43.7642 7.83235 44.0535 7.76002C44.3428 7.66961 44.605 7.6244 44.8401 7.6244C45.6357 7.6244 46.2053 7.84139 46.5489 8.27537C46.8925 8.70935 47.0552 9.22471 47.0371 9.82143C47.0371 10.1831 46.9558 10.5266 46.793 10.8521C46.6303 11.1776 46.3952 11.4489 46.0878 11.6658C45.7804 11.8648 45.4187 11.9642 45.0028 11.9642C44.4785 11.9642 44.0897 11.8195 43.8365 11.5302C43.6015 11.2228 43.4839 10.8793 43.4839 10.4995C43.502 10.0655 43.6557 9.65869 43.945 9.27895C44.2524 8.88114 44.596 8.55565 44.9757 8.3025C44.9396 8.26633 44.8944 8.23921 44.8401 8.22113C44.7859 8.18496 44.7316 8.16688 44.6774 8.16688ZM51.8933 21.132C52.2188 21.132 52.5895 20.9422 53.0054 20.5624C53.4213 20.1646 53.8463 19.6131 54.2802 18.9079C54.7142 18.2027 55.1301 17.3618 55.5279 16.3854C55.9257 15.4089 56.2693 14.3421 56.5586 13.1848L55.989 16.1141C55.4646 17.6512 54.9041 18.8808 54.3074 19.803C53.7287 20.7252 53.1139 21.3852 52.4629 21.783C51.8301 22.1808 51.17 22.3797 50.4829 22.3797C49.5065 22.3797 48.7832 22.0814 48.313 21.4846C47.8429 20.8698 47.6078 20.0561 47.6078 19.0435C47.6078 18.1032 47.7615 17.1177 48.0689 16.087C48.3763 15.0382 48.8012 14.0166 49.3437 13.022C49.9043 12.0094 50.5372 11.1053 51.2424 10.3097C51.9476 9.49594 52.698 8.84497 53.4936 8.35675C54.2893 7.86852 55.0849 7.6244 55.8805 7.6244C56.4953 7.6244 56.9655 7.8866 57.291 8.41099C57.6165 8.9173 57.6978 9.69485 57.5351 10.7436L57.2367 10.9064C57.3633 10.1469 57.3271 9.55019 57.1282 9.11621C56.9474 8.68223 56.64 8.46524 56.206 8.46524C55.7901 8.46524 55.3471 8.68223 54.877 9.11621C54.4249 9.55019 53.9728 10.1379 53.5208 10.8793C53.0687 11.6206 52.6528 12.4615 52.2731 13.4018C51.9114 14.3421 51.6221 15.3185 51.4051 16.3311C51.1881 17.3438 51.0796 18.3293 51.0796 19.2876C51.0796 19.9567 51.1429 20.4359 51.2695 20.7252C51.4142 20.9964 51.6221 21.132 51.8933 21.132ZM57.9962 8.00414C58.6472 7.98605 59.2529 7.94989 59.8135 7.89564C60.3921 7.84139 60.9436 7.75098 61.468 7.6244L57.9691 19.6674C57.8967 19.8843 57.8425 20.1104 57.8063 20.3455C57.7882 20.5624 57.8063 20.7523 57.8606 20.915C57.9329 21.0597 58.0866 21.132 58.3217 21.132C58.611 21.132 58.9094 20.9783 59.2168 20.6709C59.5242 20.3635 59.8406 19.7397 60.1661 18.7994L60.5729 17.5788H61.0883L60.4102 19.5589C60.1571 20.3002 59.8406 20.8789 59.4609 21.2948C59.0811 21.6926 58.6743 21.9729 58.2403 22.1356C57.8244 22.2984 57.4085 22.3797 56.9926 22.3797C56.1247 22.3797 55.5098 22.1085 55.1482 21.566C54.9131 21.1682 54.8227 20.68 54.877 20.1013C54.9312 19.5227 55.0487 18.8988 55.2296 18.2298L57.9962 8.00414ZM64.2313 21.5931C64.3759 21.6655 64.5296 21.7288 64.6924 21.783C64.8551 21.8192 65.0811 21.8373 65.3705 21.8373C66.0576 21.8373 66.6272 21.6203 67.0793 21.1863C67.5494 20.7342 67.7845 20.1104 67.7845 19.3147C67.7845 18.7361 67.6579 18.1484 67.4047 17.5517C67.1697 16.955 66.808 16.295 66.3198 15.5717C65.8858 14.9388 65.488 14.3149 65.1264 13.7001C64.7828 13.0853 64.611 12.3801 64.611 11.5845C64.611 10.8069 64.8009 10.1288 65.1806 9.55019C65.5603 8.95347 66.1028 8.48332 66.808 8.13975C67.5132 7.79619 68.336 7.6244 69.2763 7.6244C69.8911 7.6244 70.4969 7.69673 71.0936 7.84139C71.6903 7.98605 72.1785 8.24825 72.5583 8.62798C72.938 9.00772 73.1279 9.55923 73.1279 10.2825C73.1279 10.5357 73.0736 10.8069 72.9651 11.0962C72.8566 11.3675 72.6939 11.6026 72.4769 11.8015C72.2599 12.0004 71.9706 12.0998 71.6089 12.0998C71.2292 12.0998 70.9128 11.9552 70.6596 11.6658C70.4064 11.3584 70.2799 10.9697 70.2799 10.4995C70.2799 10.0836 70.3522 9.69485 70.4969 9.3332C70.6596 8.97155 70.8495 8.65511 71.0665 8.38387C70.8133 8.23921 70.4516 8.16688 69.9815 8.16688C69.3305 8.16688 68.8061 8.37483 68.4083 8.79073C68.0105 9.20662 67.8116 9.7943 67.8116 10.5538C67.8116 10.9516 67.8749 11.3313 68.0015 11.693C68.1461 12.0365 68.336 12.3982 68.5711 12.7779C68.8242 13.1396 69.1045 13.5645 69.4119 14.0527C69.9182 14.8664 70.316 15.5988 70.6054 16.2498C70.8947 16.8826 71.0393 17.5336 71.0393 18.2027C71.0393 18.9983 70.8223 19.7126 70.3884 20.3455C69.9725 20.9783 69.3938 21.4756 68.6524 21.8373C67.9111 22.1989 67.0431 22.3797 66.0486 22.3797C65.3433 22.3797 64.6652 22.2803 64.0143 22.0814C63.3814 21.9005 62.857 21.5931 62.4411 21.1592C62.0433 20.7252 61.8444 20.1285 61.8444 19.369C61.8444 18.9531 61.9619 18.5734 62.197 18.2298C62.414 17.8681 62.7575 17.6873 63.2277 17.6873C63.6978 17.6873 64.0504 17.8772 64.2855 18.2569C64.5206 18.6367 64.6381 19.1068 64.6381 19.6674C64.6381 20.0652 64.5839 20.4359 64.4754 20.7794C64.385 21.1049 64.3036 21.3762 64.2313 21.5931ZM77.7722 21.132C78.0977 21.132 78.4683 20.9422 78.8842 20.5624C79.3001 20.1646 79.7251 19.6131 80.1591 18.9079C80.593 18.2027 81.0089 17.3618 81.4068 16.3854C81.8046 15.4089 82.1481 14.3421 82.4375 13.1848L81.8679 16.1141C81.3435 17.6512 80.7829 18.8808 80.1862 19.803C79.6075 20.7252 78.9927 21.3852 78.3418 21.783C77.7089 22.1808 77.0489 22.3797 76.3617 22.3797C75.3853 22.3797 74.662 22.0814 74.1918 21.4846C73.7217 20.8698 73.4866 20.0561 73.4866 19.0435C73.4866 18.1032 73.6403 17.1177 73.9477 16.087C74.2551 15.0382 74.6801 14.0166 75.2225 13.022C75.7831 12.0094 76.416 11.1053 77.1212 10.3097C77.8264 9.49594 78.5768 8.84497 79.3725 8.35675C80.1681 7.86852 80.9637 7.6244 81.7594 7.6244C82.3742 7.6244 82.8443 7.8866 83.1698 8.41099C83.4953 8.9173 83.5767 9.69485 83.4139 10.7436L83.1156 10.9064C83.2421 10.1469 83.206 9.55019 83.0071 9.11621C82.8262 8.68223 82.5188 8.46524 82.0848 8.46524C81.669 8.46524 81.2259 8.68223 80.7558 9.11621C80.3037 9.55019 79.8517 10.1379 79.3996 10.8793C78.9475 11.6206 78.5316 12.4615 78.1519 13.4018C77.7903 14.3421 77.5009 15.3185 77.2839 16.3311C77.067 17.3438 76.9585 18.3293 76.9585 19.2876C76.9585 19.9567 77.0217 20.4359 77.1483 20.7252C77.293 20.9964 77.5009 21.132 77.7722 21.132ZM83.875 8.00414C84.526 7.98605 85.1318 7.94989 85.6923 7.89564C86.2709 7.84139 86.8225 7.75098 87.3469 7.6244L83.8479 19.6674C83.7756 19.8843 83.7213 20.1104 83.6852 20.3455C83.6671 20.5624 83.6852 20.7523 83.7394 20.915C83.8117 21.0597 83.9654 21.132 84.2005 21.132C84.4898 21.132 84.7882 20.9783 85.0956 20.6709C85.403 20.3635 85.7194 19.7397 86.0449 18.7994L86.4518 17.5788H86.9671L86.289 19.5589C86.0359 20.3002 85.7194 20.8789 85.3397 21.2948C84.96 21.6926 84.5531 21.9729 84.1191 22.1356C83.7032 22.2984 83.2873 22.3797 82.8714 22.3797C82.0035 22.3797 81.3887 22.1085 81.027 21.566C80.7919 21.1682 80.7015 20.68 80.7558 20.1013C80.81 19.5227 80.9276 18.8988 81.1084 18.2298L83.875 8.00414ZM100.685 19.1249C100.522 19.7759 100.45 20.2641 100.468 20.5896C100.486 20.915 100.64 21.132 100.929 21.2405C101.219 21.349 101.671 21.4214 102.285 21.4575L102.177 22C101.707 21.9638 101.101 21.9458 100.36 21.9458C99.6183 21.9277 98.8588 21.9186 98.0813 21.9186C97.2676 21.9186 96.5081 21.9277 95.8029 21.9458C95.1158 21.9458 94.5462 21.9638 94.0941 22L94.2297 21.4575C94.8264 21.4214 95.2876 21.349 95.613 21.2405C95.9566 21.132 96.2278 20.915 96.4267 20.5896C96.6257 20.2641 96.8065 19.7759 96.9692 19.1249L100.55 5.67149C100.73 5.00244 100.803 4.51421 100.767 4.20681C100.73 3.88132 100.568 3.66433 100.278 3.55584C100.007 3.42926 99.5641 3.35693 98.9493 3.33885L99.0849 2.79637C99.5189 2.81446 100.088 2.83254 100.794 2.85062C101.499 2.8687 102.258 2.87774 103.072 2.87774C103.85 2.87774 104.6 2.8687 105.323 2.85062C106.047 2.83254 106.67 2.81446 107.195 2.79637L107.059 3.33885C106.444 3.35693 105.965 3.42926 105.622 3.55584C105.278 3.66433 105.007 3.88132 104.808 4.20681C104.627 4.51421 104.446 5.00244 104.266 5.67149L100.685 19.1249ZM108.832 22H105.496L108.778 10.3097C108.851 10.0565 108.905 9.82143 108.941 9.60444C108.977 9.38745 108.959 9.20662 108.887 9.06196C108.832 8.9173 108.679 8.84497 108.426 8.84497C108.082 8.84497 107.766 9.01676 107.476 9.36032C107.205 9.68581 106.907 10.2916 106.581 11.1776L106.12 12.4524H105.605L106.31 10.4182C106.69 9.35128 107.178 8.61894 107.775 8.22113C108.371 7.82331 109.031 7.6244 109.755 7.6244C110.351 7.6244 110.803 7.74194 111.111 7.97701C111.436 8.21209 111.644 8.51949 111.735 8.89922C111.825 9.26087 111.843 9.66773 111.789 10.1198C111.735 10.5538 111.653 10.9878 111.545 11.4217L108.832 22ZM109.836 17.0635C110.505 15.201 111.147 13.664 111.762 12.4524C112.377 11.2409 112.973 10.2825 113.552 9.57731C114.131 8.85401 114.727 8.3477 115.342 8.05838C115.957 7.76906 116.599 7.6244 117.268 7.6244C118.154 7.6244 118.769 7.82331 119.112 8.22113C119.474 8.60086 119.646 9.10717 119.628 9.74006C119.628 10.3549 119.51 11.0149 119.275 11.7201L116.617 19.6945C116.454 20.1827 116.409 20.5534 116.481 20.8066C116.554 21.0416 116.735 21.1592 117.024 21.1592C117.295 21.1592 117.575 21.0055 117.865 20.6981C118.172 20.3907 118.498 19.7668 118.841 18.8265L119.275 17.6059H119.79L119.112 19.586C118.859 20.3455 118.534 20.9241 118.136 21.3219C117.756 21.7197 117.34 21.991 116.888 22.1356C116.454 22.2984 116.02 22.3797 115.586 22.3797C115.116 22.3797 114.709 22.2984 114.366 22.1356C114.04 21.991 113.787 21.783 113.606 21.5118C113.371 21.1682 113.272 20.7252 113.308 20.1827C113.344 19.6402 113.489 18.9893 113.742 18.2298L116.21 10.7708C116.301 10.4814 116.373 10.1921 116.427 9.9028C116.481 9.5954 116.472 9.34224 116.4 9.14333C116.328 8.92634 116.138 8.81785 115.83 8.81785C115.451 8.81785 115.035 9.03484 114.583 9.46882C114.131 9.88472 113.661 10.4724 113.172 11.2319C112.684 11.9913 112.196 12.8774 111.708 13.89C111.219 14.9026 110.749 16.0056 110.297 17.1991C109.863 18.3745 109.474 19.595 109.131 20.8608L109.836 17.0635ZM131.717 8.00414L131.636 8.54661H122.549L122.685 8.00414H131.717ZM125.126 19.6945C124.981 20.2008 124.999 20.5715 125.18 20.8066C125.379 21.0416 125.641 21.1592 125.967 21.1592C126.346 21.1592 126.726 20.9783 127.106 20.6167C127.504 20.255 127.865 19.6221 128.191 18.718L128.598 17.6059H129.113L128.571 19.2334C128.191 20.3545 127.666 21.1592 126.997 21.6474C126.328 22.1356 125.533 22.3797 124.61 22.3797C123.797 22.3797 123.173 22.1989 122.739 21.8373C122.323 21.4756 122.07 20.9874 121.979 20.3726C121.907 19.7397 121.989 19.0254 122.224 18.2298L126.319 3.93557C126.97 3.91749 127.576 3.88132 128.137 3.82708C128.715 3.77283 129.258 3.68242 129.764 3.55584L125.126 19.6945ZM133.606 16.0328C134.456 15.7073 135.234 15.3728 135.939 15.0292C136.662 14.6675 137.268 14.2878 137.756 13.89C138.425 13.2933 138.968 12.5971 139.384 11.8015C139.799 10.9878 140.007 10.1017 140.007 9.14333C140.007 8.72744 139.971 8.4562 139.899 8.32962C139.827 8.20304 139.718 8.13975 139.573 8.13975C139.158 8.13975 138.706 8.33866 138.217 8.73648C137.729 9.13429 137.25 9.68581 136.78 10.391C136.31 11.0782 135.876 11.8557 135.478 12.7237C135.098 13.5916 134.791 14.5048 134.556 15.4632C134.32 16.4215 134.203 17.3709 134.203 18.3112C134.203 19.2695 134.384 19.9476 134.745 20.3455C135.125 20.7252 135.622 20.915 136.237 20.915C136.762 20.915 137.385 20.7433 138.109 20.3997C138.832 20.0561 139.546 19.4323 140.252 18.5282L140.686 18.7451C140.324 19.3419 139.845 19.9205 139.248 20.4811C138.651 21.0416 137.964 21.5027 137.187 21.8644C136.427 22.2079 135.586 22.3797 134.664 22.3797C133.905 22.3797 133.217 22.2351 132.603 21.9458C131.988 21.6564 131.509 21.2315 131.165 20.6709C130.822 20.0923 130.65 19.3871 130.65 18.5553C130.65 17.6692 130.803 16.7289 131.111 15.7344C131.418 14.7218 131.852 13.7363 132.413 12.7779C132.991 11.8195 133.67 10.9516 134.447 10.174C135.243 9.39649 136.12 8.78168 137.078 8.32962C138.036 7.85948 139.067 7.6244 140.17 7.6244C140.893 7.6244 141.499 7.79619 141.987 8.13975C142.476 8.46524 142.72 8.97155 142.72 9.65869C142.72 10.3639 142.521 11.0239 142.123 11.6387C141.725 12.2535 141.183 12.8141 140.496 13.3204C139.827 13.8267 139.085 14.2788 138.272 14.6766C137.476 15.0744 136.671 15.418 135.858 15.7073C135.044 15.9966 134.284 16.2317 133.579 16.4125L133.606 16.0328ZM146.79 22H143.454L146.708 10.3097C146.871 9.76718 146.925 9.38745 146.871 9.17046C146.817 8.95347 146.654 8.84497 146.383 8.84497C146.039 8.84497 145.723 9.01676 145.434 9.36032C145.144 9.70389 144.846 10.3097 144.539 11.1776L144.077 12.4524H143.562L144.267 10.4182C144.521 9.69485 144.837 9.13429 145.217 8.73648C145.596 8.32058 146.012 8.03126 146.464 7.86852C146.916 7.70577 147.378 7.6244 147.848 7.6244C148.426 7.6244 148.851 7.74194 149.123 7.97701C149.412 8.21209 149.593 8.51949 149.665 8.89922C149.755 9.27895 149.773 9.69485 149.719 10.1469C149.683 10.5809 149.611 11.0058 149.502 11.4217L146.79 22ZM153.734 8.24825C153.336 8.24825 152.929 8.39291 152.513 8.68223C152.097 8.95347 151.663 9.39649 151.211 10.0113C150.759 10.6261 150.298 11.4398 149.828 12.4524C149.376 13.447 148.906 14.6675 148.417 16.1141C147.929 17.5427 147.441 19.2334 146.953 21.1863L147.604 17.5788C148.164 15.6802 148.689 14.0979 149.177 12.8322C149.683 11.5483 150.171 10.5266 150.641 9.76718C151.13 8.98963 151.645 8.43812 152.187 8.11263C152.73 7.78715 153.318 7.6244 153.951 7.6244C154.602 7.6244 155.099 7.81427 155.442 8.194C155.804 8.57374 155.985 9.04388 155.985 9.60444C155.985 10.0565 155.876 10.4814 155.659 10.8793C155.442 11.259 155.153 11.5664 154.791 11.8015C154.448 12.0185 154.05 12.1269 153.598 12.1269C153.146 12.1269 152.784 12.0094 152.513 11.7743C152.26 11.5393 152.133 11.1957 152.133 10.7436C152.133 10.3458 152.224 9.98417 152.404 9.65869C152.585 9.3332 152.82 9.06196 153.11 8.84497C153.399 8.6099 153.715 8.44716 154.059 8.35675C154.023 8.32058 153.978 8.29346 153.923 8.27537C153.869 8.25729 153.806 8.24825 153.734 8.24825ZM159.133 22H155.797L159.079 10.3097C159.151 10.0565 159.206 9.82143 159.242 9.60444C159.278 9.38745 159.26 9.20662 159.188 9.06196C159.133 8.9173 158.98 8.84497 158.726 8.84497C158.383 8.84497 158.066 9.01676 157.777 9.36032C157.506 9.68581 157.208 10.2916 156.882 11.1776L156.421 12.4524H155.906L156.611 10.4182C156.991 9.35128 157.479 8.61894 158.075 8.22113C158.672 7.82331 159.332 7.6244 160.056 7.6244C160.652 7.6244 161.104 7.74194 161.412 7.97701C161.737 8.21209 161.945 8.51949 162.036 8.89922C162.126 9.26087 162.144 9.66773 162.09 10.1198C162.036 10.5538 161.954 10.9878 161.846 11.4217L159.133 22ZM160.137 17.0635C160.806 15.201 161.448 13.664 162.063 12.4524C162.677 11.2409 163.274 10.2825 163.853 9.57731C164.431 8.85401 165.028 8.3477 165.643 8.05838C166.258 7.76906 166.9 7.6244 167.569 7.6244C168.455 7.6244 169.07 7.82331 169.413 8.22113C169.775 8.60086 169.947 9.10717 169.929 9.74006C169.929 10.3549 169.811 11.0149 169.576 11.7201L166.918 19.6945C166.755 20.1827 166.71 20.5534 166.782 20.8066C166.855 21.0416 167.035 21.1592 167.325 21.1592C167.596 21.1592 167.876 21.0055 168.166 20.6981C168.473 20.3907 168.798 19.7668 169.142 18.8265L169.576 17.6059H170.091L169.413 19.586C169.16 20.3455 168.835 20.9241 168.437 21.3219C168.057 21.7197 167.641 21.991 167.189 22.1356C166.755 22.2984 166.321 22.3797 165.887 22.3797C165.417 22.3797 165.01 22.2984 164.667 22.1356C164.341 21.991 164.088 21.783 163.907 21.5118C163.672 21.1682 163.573 20.7252 163.609 20.1827C163.645 19.6402 163.79 18.9893 164.043 18.2298L166.511 10.7708C166.601 10.4814 166.674 10.1921 166.728 9.9028C166.782 9.5954 166.773 9.34224 166.701 9.14333C166.628 8.92634 166.439 8.81785 166.131 8.81785C165.751 8.81785 165.336 9.03484 164.884 9.46882C164.431 9.88472 163.961 10.4724 163.473 11.2319C162.985 11.9913 162.497 12.8774 162.008 13.89C161.52 14.9026 161.05 16.0056 160.598 17.1991C160.164 18.3745 159.775 19.595 159.432 20.8608L160.137 17.0635ZM175.725 21.132C176.05 21.132 176.421 20.9422 176.837 20.5624C177.253 20.1646 177.678 19.6131 178.112 18.9079C178.546 18.2027 178.962 17.3618 179.36 16.3854C179.757 15.4089 180.101 14.3421 180.39 13.1848L179.821 16.1141C179.296 17.6512 178.736 18.8808 178.139 19.803C177.56 20.7252 176.946 21.3852 176.295 21.783C175.662 22.1808 175.002 22.3797 174.315 22.3797C173.338 22.3797 172.615 22.0814 172.145 21.4846C171.675 20.8698 171.439 20.0561 171.439 19.0435C171.439 18.1032 171.593 17.1177 171.901 16.087C172.208 15.0382 172.633 14.0166 173.175 13.022C173.736 12.0094 174.369 11.1053 175.074 10.3097C175.779 9.49594 176.53 8.84497 177.325 8.35675C178.121 7.86852 178.917 7.6244 179.712 7.6244C180.327 7.6244 180.797 7.8866 181.123 8.41099C181.448 8.9173 181.529 9.69485 181.367 10.7436L181.068 10.9064C181.195 10.1469 181.159 9.55019 180.96 9.11621C180.779 8.68223 180.472 8.46524 180.038 8.46524C179.622 8.46524 179.179 8.68223 178.709 9.11621C178.257 9.55019 177.804 10.1379 177.352 10.8793C176.9 11.6206 176.484 12.4615 176.105 13.4018C175.743 14.3421 175.454 15.3185 175.237 16.3311C175.02 17.3438 174.911 18.3293 174.911 19.2876C174.911 19.9567 174.975 20.4359 175.101 20.7252C175.246 20.9964 175.454 21.132 175.725 21.132ZM181.828 8.00414C182.479 7.98605 183.085 7.94989 183.645 7.89564C184.224 7.84139 184.775 7.75098 185.3 7.6244L181.801 19.6674C181.728 19.8843 181.674 20.1104 181.638 20.3455C181.62 20.5624 181.638 20.7523 181.692 20.915C181.765 21.0597 181.918 21.132 182.153 21.132C182.443 21.132 182.741 20.9783 183.048 20.6709C183.356 20.3635 183.672 19.7397 183.998 18.7994L184.405 17.5788H184.92L184.242 19.5589C183.989 20.3002 183.672 20.8789 183.293 21.2948C182.913 21.6926 182.506 21.9729 182.072 22.1356C181.656 22.2984 181.24 22.3797 180.824 22.3797C179.956 22.3797 179.341 22.1085 178.98 21.566C178.745 21.1682 178.654 20.68 178.709 20.1013C178.763 19.5227 178.88 18.8988 179.061 18.2298L181.828 8.00414ZM196.851 8.00414L196.77 8.54661H187.683L187.819 8.00414H196.851ZM190.26 19.6945C190.115 20.2008 190.133 20.5715 190.314 20.8066C190.513 21.0416 190.775 21.1592 191.101 21.1592C191.481 21.1592 191.86 20.9783 192.24 20.6167C192.638 20.255 192.999 19.6221 193.325 18.718L193.732 17.6059H194.247L193.705 19.2334C193.325 20.3545 192.801 21.1592 192.131 21.6474C191.462 22.1356 190.667 22.3797 189.745 22.3797C188.931 22.3797 188.307 22.1989 187.873 21.8373C187.457 21.4756 187.204 20.9874 187.114 20.3726C187.041 19.7397 187.123 19.0254 187.358 18.2298L191.453 3.93557C192.104 3.91749 192.71 3.88132 193.271 3.82708C193.849 3.77283 194.392 3.68242 194.898 3.55584L190.26 19.6945ZM200.531 3.33885C200.585 2.6698 200.856 2.13636 201.344 1.73855C201.832 1.34073 202.402 1.14182 203.053 1.14182C203.65 1.14182 204.102 1.31361 204.409 1.65717C204.735 1.98266 204.87 2.4076 204.816 2.93199C204.762 3.5468 204.491 4.06215 204.002 4.47805C203.514 4.89394 202.945 5.10189 202.294 5.10189C201.697 5.10189 201.236 4.93915 200.91 4.61367C200.603 4.2701 200.476 3.84516 200.531 3.33885ZM199.581 10.3097C199.907 9.3332 199.798 8.84497 199.256 8.84497C198.894 8.84497 198.569 9.03484 198.279 9.41457C197.99 9.77622 197.683 10.3639 197.357 11.1776L196.896 12.4524H196.381L197.086 10.4182C197.357 9.69485 197.683 9.13429 198.062 8.73648C198.442 8.32058 198.867 8.03126 199.337 7.86852C199.807 7.70577 200.268 7.6244 200.72 7.6244C201.353 7.6244 201.832 7.74194 202.158 7.97701C202.483 8.21209 202.7 8.51949 202.809 8.89922C202.917 9.27895 202.945 9.69485 202.89 10.1469C202.836 10.5809 202.737 11.0058 202.592 11.4217L199.717 19.6945C199.554 20.1827 199.509 20.5534 199.581 20.8066C199.654 21.0416 199.825 21.1592 200.097 21.1592C200.386 21.1592 200.675 21.0055 200.965 20.6981C201.272 20.3726 201.597 19.7487 201.941 18.8265L202.402 17.6059H202.917L202.239 19.586C201.968 20.3093 201.643 20.8789 201.263 21.2948C200.883 21.6926 200.467 21.9729 200.015 22.1356C199.563 22.2984 199.12 22.3797 198.686 22.3797C197.89 22.3797 197.312 22.2079 196.95 21.8644C196.589 21.5027 196.408 21.0145 196.408 20.3997C196.408 19.7668 196.552 19.0435 196.842 18.2298L199.581 10.3097ZM212.937 8.16688C212.467 8.16688 211.988 8.41099 211.5 8.89922C211.011 9.36937 210.55 10.0203 210.116 10.8521C209.682 11.6658 209.284 12.579 208.923 13.5916C208.579 14.6043 208.308 15.653 208.109 16.738C207.91 17.8049 207.811 18.8265 207.811 19.803C207.811 20.5263 207.901 21.0507 208.082 21.3762C208.281 21.6836 208.57 21.8373 208.95 21.8373C209.402 21.8373 209.872 21.6022 210.36 21.132C210.849 20.6619 211.31 20.029 211.744 19.2334C212.196 18.4197 212.594 17.5155 212.937 16.521C213.281 15.5084 213.552 14.4596 213.751 13.3746C213.95 12.2897 214.049 11.2319 214.049 10.2012C214.049 9.4417 213.95 8.9173 213.751 8.62798C213.57 8.32058 213.299 8.16688 212.937 8.16688ZM204.61 17.9857C204.61 17.172 204.719 16.295 204.936 15.3547C205.171 14.4144 205.514 13.4922 205.966 12.5881C206.418 11.6658 206.979 10.834 207.648 10.0927C208.335 9.3332 209.131 8.73648 210.035 8.3025C210.939 7.85043 211.961 7.6244 213.1 7.6244C214.402 7.6244 215.414 7.99509 216.138 8.73648C216.879 9.45978 217.25 10.5538 217.25 12.0185C217.25 12.8322 217.132 13.7092 216.897 14.6495C216.68 15.5897 216.346 16.521 215.894 17.4432C215.442 18.3473 214.872 19.1791 214.185 19.9386C213.516 20.68 212.729 21.2767 211.825 21.7288C210.921 22.1627 209.899 22.3797 208.76 22.3797C207.458 22.3797 206.436 22.009 205.695 21.2677C204.972 20.5263 204.61 19.4323 204.61 17.9857ZM222.122 22H218.786L222.068 10.3097C222.14 10.0565 222.194 9.82143 222.23 9.60444C222.267 9.38745 222.248 9.20662 222.176 9.06196C222.122 8.9173 221.968 8.84497 221.715 8.84497C221.371 8.84497 221.055 9.01676 220.766 9.36032C220.494 9.68581 220.196 10.2916 219.871 11.1776L219.41 12.4524H218.894L219.599 10.4182C219.979 9.35128 220.467 8.61894 221.064 8.22113C221.661 7.82331 222.321 7.6244 223.044 7.6244C223.641 7.6244 224.093 7.74194 224.4 7.97701C224.726 8.21209 224.934 8.51949 225.024 8.89922C225.115 9.26087 225.133 9.66773 225.078 10.1198C225.024 10.5538 224.943 10.9878 224.834 11.4217L222.122 22ZM223.125 17.0635C223.795 15.201 224.436 13.664 225.051 12.4524C225.666 11.2409 226.263 10.2825 226.841 9.57731C227.42 8.85401 228.017 8.3477 228.632 8.05838C229.246 7.76906 229.888 7.6244 230.557 7.6244C231.443 7.6244 232.058 7.82331 232.402 8.22113C232.763 8.60086 232.935 9.10717 232.917 9.74006C232.917 10.3549 232.8 11.0149 232.565 11.7201L229.906 19.6945C229.744 20.1827 229.698 20.5534 229.771 20.8066C229.843 21.0416 230.024 21.1592 230.313 21.1592C230.584 21.1592 230.865 21.0055 231.154 20.6981C231.461 20.3907 231.787 19.7668 232.131 18.8265L232.565 17.6059H233.08L232.402 19.586C232.149 20.3455 231.823 20.9241 231.425 21.3219C231.046 21.7197 230.63 21.991 230.178 22.1356C229.744 22.2984 229.31 22.3797 228.876 22.3797C228.406 22.3797 227.999 22.2984 227.655 22.1356C227.33 21.991 227.076 21.783 226.896 21.5118C226.661 21.1682 226.561 20.7252 226.597 20.1827C226.633 19.6402 226.778 18.9893 227.031 18.2298L229.5 10.7708C229.59 10.4814 229.662 10.1921 229.717 9.9028C229.771 9.5954 229.762 9.34224 229.689 9.14333C229.617 8.92634 229.427 8.81785 229.12 8.81785C228.74 8.81785 228.324 9.03484 227.872 9.46882C227.42 9.88472 226.95 10.4724 226.462 11.2319C225.973 11.9913 225.485 12.8774 224.997 13.89C224.509 14.9026 224.039 16.0056 223.587 17.1991C223.153 18.3745 222.764 19.595 222.42 20.8608L223.125 17.0635ZM238.714 21.132C239.039 21.132 239.41 20.9422 239.826 20.5624C240.242 20.1646 240.666 19.6131 241.1 18.9079C241.534 18.2027 241.95 17.3618 242.348 16.3854C242.746 15.4089 243.09 14.3421 243.379 13.1848L242.809 16.1141C242.285 17.6512 241.724 18.8808 241.128 19.803C240.549 20.7252 239.934 21.3852 239.283 21.783C238.65 22.1808 237.99 22.3797 237.303 22.3797C236.327 22.3797 235.603 22.0814 235.133 21.4846C234.663 20.8698 234.428 20.0561 234.428 19.0435C234.428 18.1032 234.582 17.1177 234.889 16.087C235.197 15.0382 235.621 14.0166 236.164 13.022C236.724 12.0094 237.357 11.1053 238.063 10.3097C238.768 9.49594 239.518 8.84497 240.314 8.35675C241.11 7.86852 241.905 7.6244 242.701 7.6244C243.316 7.6244 243.786 7.8866 244.111 8.41099C244.437 8.9173 244.518 9.69485 244.355 10.7436L244.057 10.9064C244.184 10.1469 244.147 9.55019 243.948 9.11621C243.768 8.68223 243.46 8.46524 243.026 8.46524C242.61 8.46524 242.167 8.68223 241.697 9.11621C241.245 9.55019 240.793 10.1379 240.341 10.8793C239.889 11.6206 239.473 12.4615 239.093 13.4018C238.732 14.3421 238.442 15.3185 238.225 16.3311C238.008 17.3438 237.9 18.3293 237.9 19.2876C237.9 19.9567 237.963 20.4359 238.09 20.7252C238.234 20.9964 238.442 21.132 238.714 21.132ZM244.816 8.00414C245.467 7.98605 246.073 7.94989 246.634 7.89564C247.212 7.84139 247.764 7.75098 248.288 7.6244L244.789 19.6674C244.717 19.8843 244.663 20.1104 244.627 20.3455C244.608 20.5624 244.627 20.7523 244.681 20.915C244.753 21.0597 244.907 21.132 245.142 21.132C245.431 21.132 245.73 20.9783 246.037 20.6709C246.344 20.3635 246.661 19.7397 246.986 18.7994L247.393 17.5788H247.909L247.23 19.5589C246.977 20.3002 246.661 20.8789 246.281 21.2948C245.901 21.6926 245.495 21.9729 245.061 22.1356C244.645 22.2984 244.229 22.3797 243.813 22.3797C242.945 22.3797 242.33 22.1085 241.968 21.566C241.733 21.1682 241.643 20.68 241.697 20.1013C241.751 19.5227 241.869 18.8988 242.05 18.2298L244.816 8.00414ZM252.679 19.6945C252.534 20.1827 252.498 20.5534 252.57 20.8066C252.661 21.0416 252.842 21.1592 253.113 21.1592C253.366 21.1592 253.637 21.0055 253.927 20.6981C254.234 20.3726 254.56 19.7487 254.903 18.8265L255.337 17.6059H255.852L255.174 19.586C254.921 20.3093 254.605 20.8789 254.225 21.2948C253.845 21.6926 253.438 21.9729 253.004 22.1356C252.57 22.2984 252.127 22.3797 251.675 22.3797C251.097 22.3797 250.636 22.2712 250.292 22.0542C249.948 21.8373 249.713 21.5389 249.587 21.1592C249.46 20.7794 249.415 20.3455 249.451 19.8572C249.487 19.3509 249.596 18.8084 249.777 18.2298L254.089 3.90845C254.27 3.29364 254.252 2.84158 254.035 2.55226C253.818 2.26294 253.267 2.11828 252.381 2.11828L252.57 1.54868C253.746 1.5306 254.795 1.43114 255.717 1.25032C256.639 1.05141 257.525 0.780173 258.375 0.436606L252.679 19.6945ZM279.629 2.60651C279.448 3.07665 279.204 3.76379 278.896 4.66791C278.607 5.55396 278.318 6.71124 278.028 8.13975H277.486C277.54 7.8866 277.576 7.6244 277.594 7.35317C277.63 7.08193 277.648 6.83781 277.648 6.62082C277.648 5.91561 277.504 5.3008 277.214 4.77641C276.943 4.23393 276.518 3.80899 275.94 3.50159C275.379 3.17611 274.656 3.01336 273.77 3.01336C272.811 3.01336 271.998 3.26652 271.329 3.77283C270.66 4.26106 270.325 5.04765 270.325 6.1326C270.325 6.80165 270.479 7.43454 270.786 8.03126C271.112 8.6099 271.519 9.1795 272.007 9.74006C272.513 10.2825 273.046 10.834 273.607 11.3946C274.168 11.9371 274.692 12.4976 275.18 13.0763C275.668 13.6549 276.066 14.2697 276.374 14.9207C276.699 15.5536 276.862 16.2498 276.862 17.0092C276.862 17.9676 276.627 18.7904 276.157 19.4775C275.705 20.1465 275.117 20.6981 274.394 21.132C273.67 21.5479 272.884 21.8553 272.034 22.0542C271.202 22.2712 270.388 22.3797 269.593 22.3797C268.779 22.3797 268.101 22.3164 267.558 22.1899C267.034 22.0814 266.591 21.9277 266.229 21.7288C265.868 21.5299 265.515 21.3309 265.172 21.132C264.991 20.9874 264.81 20.8879 264.629 20.8337C264.466 20.7613 264.331 20.7252 264.222 20.7252C263.987 20.7252 263.788 20.8427 263.625 21.0778C263.481 21.2948 263.3 21.6655 263.083 22.1899H262.541C262.703 21.7921 262.875 21.3309 263.056 20.8066C263.237 20.2822 263.436 19.6131 263.653 18.7994C263.87 17.9676 264.114 16.9279 264.385 15.6802H264.927C264.855 16.0237 264.792 16.3854 264.738 16.7651C264.683 17.1268 264.665 17.4884 264.683 17.8501C264.738 19.1158 265.126 20.0923 265.85 20.7794C266.591 21.4666 267.676 21.8101 269.104 21.8101C270.316 21.8101 271.229 21.557 271.844 21.0507C272.459 20.5263 272.766 19.7668 272.766 18.7723C272.766 18.0128 272.622 17.3257 272.332 16.7109C272.061 16.078 271.699 15.4903 271.247 14.9478C270.795 14.4053 270.316 13.8719 269.81 13.3475C269.303 12.8231 268.824 12.2897 268.372 11.7472C267.92 11.1867 267.549 10.5899 267.26 9.95705C266.971 9.30608 266.826 8.58278 266.826 7.78715C266.826 6.88302 267.016 6.09643 267.396 5.42738C267.794 4.75833 268.3 4.20681 268.915 3.77283C269.548 3.32077 270.244 2.98624 271.003 2.76925C271.763 2.53418 272.513 2.41664 273.254 2.41664C274.231 2.41664 275.036 2.53418 275.668 2.76925C276.301 3.00432 276.844 3.2846 277.296 3.61009C277.495 3.73666 277.667 3.84516 277.811 3.93557C277.974 4.0079 278.101 4.04407 278.191 4.04407C278.444 4.04407 278.742 3.56488 279.086 2.60651H279.629ZM288.259 8.16688C287.571 8.16688 286.893 8.44716 286.224 9.00772C285.573 9.56827 284.977 10.3368 284.434 11.3132C283.91 12.2716 283.485 13.3656 283.159 14.5952C282.852 15.8067 282.698 17.0635 282.698 18.3654C282.698 19.3057 282.879 19.9838 283.241 20.3997C283.62 20.8156 284.109 21.0235 284.705 21.0235C285.302 21.0235 285.917 20.8427 286.55 20.4811C287.183 20.1194 287.816 19.4684 288.448 18.5282L288.991 18.7451C288.629 19.3419 288.168 19.9205 287.608 20.4811C287.047 21.0416 286.396 21.5027 285.655 21.8644C284.931 22.2079 284.127 22.3797 283.241 22.3797C282.047 22.3797 281.071 22.0452 280.311 21.3762C279.552 20.689 279.172 19.6583 279.172 18.284C279.172 17.398 279.299 16.4668 279.552 15.4903C279.823 14.5138 280.212 13.5645 280.718 12.6423C281.224 11.702 281.839 10.8612 282.563 10.1198C283.286 9.36032 284.109 8.75456 285.031 8.3025C285.953 7.85043 286.966 7.6244 288.069 7.6244C288.991 7.6244 289.741 7.85948 290.32 8.32962C290.917 8.79977 291.215 9.40553 291.215 10.1469C291.215 10.5809 291.107 11.0058 290.89 11.4217C290.691 11.8376 290.41 12.1812 290.049 12.4524C289.687 12.7237 289.271 12.8593 288.801 12.8593C288.385 12.8593 288.042 12.7327 287.77 12.4796C287.517 12.2264 287.391 11.8919 287.391 11.476C287.391 10.8069 287.626 10.2283 288.096 9.74006C288.584 9.25183 289.126 8.93539 289.723 8.79073C289.56 8.6099 289.362 8.46524 289.126 8.35675C288.91 8.23017 288.62 8.16688 288.259 8.16688ZM294.066 22H290.73L296.101 3.90845C296.281 3.29364 296.254 2.84158 296.019 2.55226C295.802 2.26294 295.251 2.11828 294.365 2.11828L294.555 1.54868C295.748 1.5306 296.806 1.43114 297.728 1.25032C298.668 1.05141 299.554 0.780173 300.386 0.436606L294.066 22ZM294.772 18.0399C295.477 16.0147 296.137 14.333 296.752 12.9949C297.385 11.6387 297.999 10.5719 298.596 9.7943C299.211 8.99867 299.835 8.43812 300.468 8.11263C301.119 7.78715 301.797 7.6244 302.502 7.6244C303.37 7.6244 303.985 7.82331 304.346 8.22113C304.708 8.60086 304.88 9.10717 304.862 9.74006C304.862 10.3729 304.744 11.033 304.509 11.7201L301.851 19.6945C301.688 20.1827 301.634 20.5534 301.688 20.8066C301.76 21.0416 301.941 21.1592 302.231 21.1592C302.502 21.1592 302.791 21.0055 303.099 20.6981C303.406 20.3907 303.731 19.7668 304.075 18.8265L304.509 17.6059H305.024L304.346 19.586C304.093 20.3455 303.768 20.9241 303.37 21.3219C302.99 21.7197 302.574 21.991 302.122 22.1356C301.688 22.2984 301.254 22.3797 300.82 22.3797C300.006 22.3797 299.419 22.1989 299.057 21.8373C298.714 21.4756 298.551 20.9783 298.569 20.3455C298.587 19.7126 298.714 19.0073 298.949 18.2298L301.444 10.7708C301.534 10.4814 301.607 10.1831 301.661 9.87568C301.715 9.56827 301.706 9.31512 301.634 9.11621C301.562 8.9173 301.372 8.81785 301.064 8.81785C300.667 8.81785 300.233 9.04388 299.762 9.49594C299.31 9.92992 298.831 10.5447 298.325 11.3404C297.819 12.136 297.312 13.0763 296.806 14.1612C296.318 15.2281 295.848 16.3944 295.395 17.6602C294.943 18.926 294.527 20.255 294.148 21.6474L294.772 18.0399ZM314.996 8.16688C314.525 8.16688 314.046 8.41099 313.558 8.89922C313.07 9.36937 312.609 10.0203 312.175 10.8521C311.741 11.6658 311.343 12.579 310.981 13.5916C310.638 14.6043 310.366 15.653 310.168 16.738C309.969 17.8049 309.869 18.8265 309.869 19.803C309.869 20.5263 309.96 21.0507 310.14 21.3762C310.339 21.6836 310.629 21.8373 311.008 21.8373C311.46 21.8373 311.931 21.6022 312.419 21.132C312.907 20.6619 313.368 20.029 313.802 19.2334C314.254 18.4197 314.652 17.5155 314.996 16.521C315.339 15.5084 315.61 14.4596 315.809 13.3746C316.008 12.2897 316.108 11.2319 316.108 10.2012C316.108 9.4417 316.008 8.9173 315.809 8.62798C315.628 8.32058 315.357 8.16688 314.996 8.16688ZM306.669 17.9857C306.669 17.172 306.777 16.295 306.994 15.3547C307.229 14.4144 307.573 13.4922 308.025 12.5881C308.477 11.6658 309.037 10.834 309.706 10.0927C310.394 9.3332 311.189 8.73648 312.093 8.3025C312.997 7.85043 314.019 7.6244 315.158 7.6244C316.46 7.6244 317.473 7.99509 318.196 8.73648C318.938 9.45978 319.308 10.5538 319.308 12.0185C319.308 12.8322 319.191 13.7092 318.956 14.6495C318.739 15.5897 318.404 16.521 317.952 17.4432C317.5 18.3473 316.93 19.1791 316.243 19.9386C315.574 20.68 314.788 21.2767 313.883 21.7288C312.979 22.1627 311.958 22.3797 310.819 22.3797C309.517 22.3797 308.495 22.009 307.754 21.2677C307.03 20.5263 306.669 19.4323 306.669 17.9857ZM328.981 8.16688C328.511 8.16688 328.032 8.41099 327.544 8.89922C327.055 9.36937 326.594 10.0203 326.16 10.8521C325.726 11.6658 325.329 12.579 324.967 13.5916C324.623 14.6043 324.352 15.653 324.153 16.738C323.954 17.8049 323.855 18.8265 323.855 19.803C323.855 20.5263 323.945 21.0507 324.126 21.3762C324.325 21.6836 324.614 21.8373 324.994 21.8373C325.446 21.8373 325.916 21.6022 326.405 21.132C326.893 20.6619 327.354 20.029 327.788 19.2334C328.24 18.4197 328.638 17.5155 328.981 16.521C329.325 15.5084 329.596 14.4596 329.795 13.3746C329.994 12.2897 330.093 11.2319 330.093 10.2012C330.093 9.4417 329.994 8.9173 329.795 8.62798C329.614 8.32058 329.343 8.16688 328.981 8.16688ZM320.654 17.9857C320.654 17.172 320.763 16.295 320.98 15.3547C321.215 14.4144 321.558 13.4922 322.01 12.5881C322.463 11.6658 323.023 10.834 323.692 10.0927C324.379 9.3332 325.175 8.73648 326.079 8.3025C326.983 7.85043 328.005 7.6244 329.144 7.6244C330.446 7.6244 331.459 7.99509 332.182 8.73648C332.923 9.45978 333.294 10.5538 333.294 12.0185C333.294 12.8322 333.176 13.7092 332.941 14.6495C332.724 15.5897 332.39 16.521 331.938 17.4432C331.486 18.3473 330.916 19.1791 330.229 19.9386C329.56 20.68 328.773 21.2767 327.869 21.7288C326.965 22.1627 325.943 22.3797 324.804 22.3797C323.502 22.3797 322.481 22.009 321.739 21.2677C321.016 20.5263 320.654 19.4323 320.654 17.9857ZM337.732 19.6945C337.587 20.1827 337.551 20.5534 337.624 20.8066C337.714 21.0416 337.895 21.1592 338.166 21.1592C338.419 21.1592 338.69 21.0055 338.98 20.6981C339.287 20.3726 339.613 19.7487 339.956 18.8265L340.39 17.6059H340.906L340.227 19.586C339.974 20.3093 339.658 20.8789 339.278 21.2948C338.898 21.6926 338.492 21.9729 338.058 22.1356C337.624 22.2984 337.181 22.3797 336.728 22.3797C336.15 22.3797 335.689 22.2712 335.345 22.0542C335.002 21.8373 334.767 21.5389 334.64 21.1592C334.513 20.7794 334.468 20.3455 334.504 19.8572C334.54 19.3509 334.649 18.8084 334.83 18.2298L339.142 3.90845C339.323 3.29364 339.305 2.84158 339.088 2.55226C338.871 2.26294 338.32 2.11828 337.434 2.11828L337.624 1.54868C338.799 1.5306 339.848 1.43114 340.77 1.25032C341.692 1.05141 342.578 0.780173 343.428 0.436606L337.732 19.6945Z" fill="#081D24"/>
</svg>
